# Blender 5.0.1
# www.blender.org
mtllib Prueba2.mtl
o Cube
v -1.000000 -1.000000 1.000000
v -1.000000 1.000000 1.000000
v -1.000000 -1.000000 -1.000000
v -0.728751 -0.722492 -0.716864
v -1.000000 1.000000 -1.000000
v 1.000000 -1.000000 1.000000
v 1.000000 -1.000000 -1.000000
v 1.000000 1.000000 -1.000000
v 1.000000 1.000000 -0.716864
v 1.000000 -0.722492 -0.716864
v 1.000000 -0.722492 1.000000
v -0.728751 1.000000 1.000000
v -0.728751 -0.722492 1.000000
v -0.728751 1.000000 -0.716864
vn -1.0000 -0.0000 -0.0000
vn -0.0000 -0.0000 -1.0000
vn 1.0000 -0.0000 -0.0000
vn -0.0000 -0.0000 1.0000
vn -0.0000 -1.0000 -0.0000
vn -0.0000 1.0000 -0.0000
vt 0.375000 0.000000
vt 0.625000 0.000000
vt 0.625000 0.250000
vt 0.375000 0.250000
vt 0.625000 0.500000
vt 0.375000 0.500000
vt 0.409688 0.535392
vt 0.625000 0.535392
vt 0.375000 1.000000
vt 0.375000 0.750000
vt 0.409688 0.750000
vt 0.409688 0.966094
vt 0.125000 0.500000
vt 0.125000 0.750000
vt 0.841094 0.535392
vt 0.875000 0.500000
vt 0.875000 0.750000
vt 0.841094 0.750000
vt 0.590312 0.035392
vt 0.375000 0.035392
vt 0.590312 0.250000
vt 0.375000 0.466094
vt 0.590312 0.466094
vt 0.341094 0.714608
vt 0.341094 0.500000
vt 0.125000 0.714608
vt 0.625000 1.000000
vt 0.625000 0.966094
s 0
f 1/1/1 2/2/1 5/3/1 3/4/1
f 3/4/2 5/3/2 8/5/2 7/6/2
f 10/7/3 7/6/3 8/5/3 9/8/3
f 1/9/4 6/10/4 11/11/4 13/12/4
f 3/13/5 7/6/5 6/10/5 1/14/5
f 14/15/6 5/16/6 2/17/6 12/18/6
f 12/19/3 13/20/3 4/4/3 14/21/3
f 14/21/4 4/4/4 10/22/4 9/23/4
f 11/24/6 10/25/6 4/13/6 13/26/6
f 11/11/3 6/10/3 7/6/3 10/7/3
f 9/8/6 8/5/6 5/16/6 14/15/6
f 2/27/4 1/9/4 13/12/4 12/28/4
